<svg width="512" height="512" xmlns="http://www.w3.org/2000/svg">

 <g>
  <title>background</title>
  <rect fill="none" id="canvas_background" height="402" width="582" y="-1" x="-1"/>
 </g>
 <g>
  <title>Layer 1</title>
  <path id="svg_4" fill="#afafaf" d="m385.708008,472.846985l-130.966003,-162.764984l125.578003,-121.533997c2.334015,-2.42601 1.526001,-9.432999 -4.760986,-9.432999l-62.160004,0c-3.14502,0 -6.287994,1.617996 -9.433014,4.761002l-118.837997,120.096985l0,-267.603992c0,-4.490999 -2.246994,-6.737 -6.737991,-6.737l-46.618011,0c-4.491997,0 -6.736992,2.246 -6.736992,6.737l0,439.171009c0,4.490997 2.246002,6.738007 6.736992,6.738007l46.618011,0c4.490997,0 6.737991,-2.247009 6.737991,-6.738007l0,-97.910004l27.666,-26.316986l99.256989,126.293976c2.695007,3.14502 5.83902,4.761993 9.432007,4.761993l60.095001,0c3.143005,0 4.938995,-0.898987 5.389008,-2.695984l-1.259003,-6.826019z"/>
  <path id="svg_5" fill="#7a7a7a" d="m381.576996,492.368011l-60.095001,0c-4.539001,0 -11.177002,-1.432007 -17.024017,-8.253998c-0.09198,-0.106995 -0.181976,-0.21701 -0.269989,-0.328003l-92.466003,-117.653015l-16.595001,15.786011l0,93.621002c0,10.011993 -6.72699,16.738007 -16.737991,16.738007l-46.617996,0c-10.011009,0 -16.737007,-6.72702 -16.737007,-16.738007l0,-439.171009c0,-10.011 6.725998,-16.737 16.737007,-16.737l46.617996,0c10.011993,0 16.737991,6.726 16.737991,16.737l0,243.279987l101.729004,-102.806992c5.143005,-5.139999 10.694,-7.72699 16.541016,-7.72699l62.159973,0c6.554016,0 12.166016,3.621994 14.647003,9.452988c2.493011,5.858002 1.416016,12.656006 -2.681,16.914001c-0.082001,0.085007 -0.165985,0.169006 -0.251984,0.251999l-119.018005,115.188004l125.246002,155.656006c1.040009,1.292999 1.742004,2.824005 2.042999,4.455994l1.257996,6.825012c0.26001,1.406006 0.213989,2.85199 -0.132996,4.237976c-0.602997,2.410004 -3.470978,10.271027 -15.089996,10.271027zm-61.816986,-21.137024c1.01001,1.136993 1.506012,1.136993 1.722992,1.136993l51.005005,0l-125.537003,-156.016968c-3.240005,-4.026001 -2.878006,-9.859009 0.835999,-13.45401l117.565994,-113.780991l-51.872009,0c-0.277985,0.084 -1.149994,0.537994 -2.445984,1.832993l-118.799011,120.057983c-2.852005,2.881012 -7.162003,3.756989 -10.910995,2.214996c-3.75,-1.541992 -6.197006,-5.194 -6.197006,-9.248993l0,-264.340992l-40.093994,0l0,432.646015l40.093994,0l0,-94.64801c0,-2.739014 1.123993,-5.356995 3.108002,-7.244995l27.666,-26.316986c2.039993,-1.94101 4.79599,-2.937012 7.612991,-2.729004c2.809006,0.201996 5.401001,1.579987 7.141998,3.793976l99.103027,126.097992z"/>
 </g>
</svg>